<?xml version="1.0" standalone="no"?>
<!DOCTYPE svg PUBLIC "-//W3C//DTD SVG 20010904//EN"
 "http://www.w3.org/TR/2001/REC-SVG-20010904/DTD/svg10.dtd">
<svg version="1.0" xmlns="http://www.w3.org/2000/svg"
 width="220.000000pt" height="250.000000pt" viewBox="0 0 220.000000 250.000000"
 preserveAspectRatio="xMidYMid meet">

<g transform="translate(0.000000,250.000000) scale(0.100000,-0.100000)"
fill="#000000" stroke="none">
<path d="M1093 2321 c-40 -21 -98 -57 -129 -81 -168 -127 -194 -186 -260 -583
-12 -74 -22 -105 -41 -127 -43 -51 -103 -36 -132 33 l-17 41 -52 -155 c-159
-480 -129 -837 91 -1084 57 -65 174 -145 254 -175 188 -71 424 -63 609 20 204
92 349 265 404 484 50 199 7 529 -102 775 l-21 46 -18 -88 c-18 -92 -62 -197
-97 -234 -30 -30 -73 -37 -116 -19 -66 27 -76 68 -91 365 -14 268 -30 378 -69
465 -22 48 -80 115 -91 105 -2 -3 2 -27 10 -54 18 -57 19 -174 4 -229 -23 -82
-90 -116 -158 -81 -48 24 -66 76 -65 185 0 84 4 104 32 170 18 41 51 104 74
140 81 123 79 120 66 120 -7 0 -46 -18 -85 -39z m-397 -1246 c28 -114 89 -175
177 -175 57 0 95 18 131 60 29 35 31 32 40 -40 20 -170 107 -260 248 -260 75
0 182 73 240 161 17 27 35 49 39 49 14 0 22 -91 16 -179 -10 -151 -68 -285
-163 -376 -94 -90 -211 -135 -354 -135 -99 0 -161 15 -248 59 -113 57 -180
135 -223 261 -40 118 -28 318 32 540 11 41 25 89 32 105 10 25 12 27 15 10 2
-11 10 -47 18 -80z"/>
</g>
</svg>
